<svg width="67" height="28" viewBox="0 0 67 28" fill="none" xmlns="http://www.w3.org/2000/svg">
<path d="M5 9.4V5.6C5 5.26863 5.26863 5 5.6 5H11.4C11.7314 5 12 5.26863 12 5.6V9.4C12 9.73137 11.7314 10 11.4 10H5.6C5.26863 10 5 9.73137 5 9.4Z" stroke="black" stroke-width="1.5"/>
<path d="M16 22.4V18.6C16 18.2686 16.2686 18 16.6 18H22.4C22.7314 18 23 18.2686 23 18.6V22.4C23 22.7314 22.7314 23 22.4 23H16.6C16.2686 23 16 22.7314 16 22.4Z" stroke="black" stroke-width="1.5"/>
<path d="M16 14.4V5.6C16 5.26863 16.2686 5 16.6 5H22.4C22.7314 5 23 5.26863 23 5.6V14.4C23 14.7314 22.7314 15 22.4 15H16.6C16.2686 15 16 14.7314 16 14.4Z" stroke="black" stroke-width="1.5"/>
<path d="M5 22.4V13.6C5 13.2686 5.26863 13 5.6 13H11.4C11.7314 13 12 13.2686 12 13.6V22.4C12 22.7314 11.7314 23 11.4 23H5.6C5.26863 23 5 22.7314 5 22.4Z" stroke="black" stroke-width="1.5"/>
<path d="M34.82 24.98C33.8467 24.98 32.96 24.84 32.16 24.56C31.36 24.2933 30.6867 23.9067 30.14 23.4L30.98 22.32C31.4067 22.7467 31.96 23.0867 32.64 23.34C33.3333 23.5933 34.0933 23.72 34.92 23.72C36.2533 23.72 37.2867 23.4133 38.02 22.8C38.7533 22.1867 39.24 21.24 39.48 19.96L40.04 17.2L40.58 15.48L40.8 13.68L41.42 10.5H42.78L40.94 19.72C40.58 21.5733 39.9 22.9133 38.9 23.74C37.9 24.5667 36.54 24.98 34.82 24.98ZM35.52 20.6C34.6 20.6 33.7867 20.4267 33.08 20.08C32.3867 19.7333 31.8467 19.2467 31.46 18.62C31.0733 17.98 30.88 17.2267 30.88 16.36C30.88 15.5067 31.0267 14.72 31.32 14C31.6133 13.28 32.0267 12.6533 32.56 12.12C33.0933 11.5733 33.7267 11.1533 34.46 10.86C35.1933 10.5533 36 10.4 36.88 10.4C37.72 10.4 38.4667 10.5467 39.12 10.84C39.7733 11.1333 40.2867 11.5733 40.66 12.16C41.0467 12.7467 41.24 13.4933 41.24 14.4C41.2533 15.5467 41.0267 16.5933 40.56 17.54C40.0933 18.4733 39.4333 19.22 38.58 19.78C37.7267 20.3267 36.7067 20.6 35.52 20.6ZM35.8 19.34C36.68 19.34 37.46 19.14 38.14 18.74C38.8333 18.34 39.38 17.7933 39.78 17.1C40.18 16.3933 40.38 15.5933 40.38 14.7C40.38 13.74 40.0733 12.9933 39.46 12.46C38.8467 11.9133 37.9933 11.64 36.9 11.64C36.02 11.64 35.2333 11.84 34.54 12.24C33.8467 12.64 33.3 13.1933 32.9 13.9C32.5133 14.5933 32.32 15.3867 32.32 16.28C32.32 17.24 32.6267 17.9933 33.24 18.54C33.8533 19.0733 34.7067 19.34 35.8 19.34ZM42.6314 21L44.7114 10.5H46.0714L45.4714 13.6L45.3114 13.06C45.7781 12.14 46.3914 11.4667 47.1514 11.04C47.9247 10.6133 48.8847 10.4 50.0314 10.4L49.7714 11.78C49.7047 11.78 49.6381 11.78 49.5714 11.78C49.5181 11.7667 49.4514 11.76 49.3714 11.76C48.2514 11.76 47.3247 12.0867 46.5914 12.74C45.8714 13.38 45.3781 14.3533 45.1114 15.66L44.0514 21H42.6314ZM48.5025 21L50.5825 10.5H52.0025L49.9225 21H48.5025ZM51.9025 8.18C51.6225 8.18 51.3892 8.08667 51.2025 7.9C51.0292 7.71333 50.9425 7.49333 50.9425 7.24C50.9425 6.94667 51.0425 6.69333 51.2425 6.48C51.4558 6.26667 51.7225 6.16 52.0425 6.16C52.3225 6.16 52.5558 6.24667 52.7425 6.42C52.9292 6.59333 53.0225 6.81333 53.0225 7.08C53.0225 7.4 52.9158 7.66667 52.7025 7.88C52.4892 8.08 52.2225 8.18 51.9025 8.18ZM56.3536 21.1C55.4603 21.1 54.6669 20.92 53.9736 20.56C53.2803 20.2 52.7403 19.6867 52.3536 19.02C51.9669 18.3533 51.7736 17.56 51.7736 16.64C51.7736 15.7467 51.9203 14.92 52.2136 14.16C52.5069 13.4 52.9203 12.74 53.4536 12.18C53.9869 11.6067 54.6136 11.1667 55.3336 10.86C56.0669 10.5533 56.8603 10.4 57.7136 10.4C58.6336 10.4 59.4136 10.5667 60.0536 10.9C60.6936 11.22 61.1869 11.6933 61.5336 12.32C61.8803 12.9333 62.0536 13.68 62.0536 14.56C62.0536 15.5067 61.9203 16.38 61.6536 17.18C61.4003 17.98 61.0203 18.6733 60.5136 19.26C60.0069 19.8467 59.4003 20.3 58.6936 20.62C58.0003 20.94 57.2203 21.1 56.3536 21.1ZM56.6536 19.84C57.5336 19.84 58.3136 19.6333 58.9936 19.22C59.6869 18.7933 60.2269 18.2067 60.6136 17.46C61.0136 16.7133 61.2136 15.8667 61.2136 14.92C61.2136 13.88 60.9069 13.0733 60.2936 12.5C59.6936 11.9267 58.8469 11.64 57.7536 11.64C56.8869 11.64 56.1069 11.8533 55.4136 12.28C54.7203 12.7067 54.1736 13.2933 53.7736 14.04C53.3869 14.7733 53.1936 15.62 53.1936 16.58C53.1936 17.6067 53.4936 18.4067 54.0936 18.98C54.7069 19.5533 55.5603 19.84 56.6536 19.84ZM60.1136 21L60.7136 17.98L61.3136 15.86L61.5136 13.66L63.0136 6.16H64.4336L61.4736 21H60.1136Z" fill="black"/>
</svg>
