<svg width="3150" height="1025" viewBox="0 0 3150 1025" fill="none" xmlns="http://www.w3.org/2000/svg">
<path d="M572.462 947.826L211.081 828.863C210.26 828.593 209.706 827.827 209.706 826.963V563.03M572.462 947.826L934.918 828.862C935.739 828.593 936.294 827.826 936.294 826.962V562.898M572.462 947.826V499.21M936.294 380.871L1070.71 516.267C1071.76 517.325 1071.32 519.119 1069.91 519.578L936.294 562.898M936.294 380.871L572.462 499.21M936.294 380.871L572.462 260.379M936.294 380.871L1070.7 246.537C1071.76 245.484 1071.33 243.691 1069.92 243.224L712.475 125.207C711.766 124.973 710.985 125.154 710.451 125.675L572.462 260.379M572.462 499.21L209.706 380.871M572.462 499.21L434.469 634.987C433.937 635.511 433.157 635.694 432.448 635.464L209.706 563.03M572.462 499.21L710.456 634.988C710.987 635.511 711.766 635.695 712.475 635.465L936.294 562.898M572.462 499.21V260.379M209.706 380.871L75.2892 516.269C74.2395 517.327 74.6731 519.119 76.09 519.58L209.706 563.03M209.706 380.871L572.462 260.379M209.706 380.871L75.2945 246.535C74.2416 245.483 74.6663 243.69 76.0795 243.222L432.448 125.209C433.157 124.974 433.939 125.154 434.473 125.676L572.462 260.379" stroke="black" stroke-width="11.999"/>
<path d="M1260.25 732.5V701H1289.5V722L1334.5 767H1524.25L1569.25 720.5V582.5L1524.25 537.5H1322.5L1261.75 476.75V330.5L1323.25 269H1531L1592.5 330.5V362.75H1563.25V341L1518.25 296H1336L1291 341V466.25L1335.25 510.5H1537L1598.5 572V731L1535.5 794H1321.75L1260.25 732.5ZM1718.28 719V269H1747.53V709.25L1805.28 767H1990.53L2048.28 709.25V269H2077.53V719L2002.53 794H1793.28L1718.28 719ZM2212.66 269H2487.91L2548.66 329.75V483.5L2510.41 521.75L2571.91 583.25V728L2505.91 794H2212.66V269ZM2476.66 516.5L2519.41 473.75V340.25L2475.16 296H2241.91V516.5H2476.66ZM2493.16 767L2542.66 717.5V593L2493.16 543.5H2241.91V767H2493.16ZM2684.34 269H2959.59L3020.34 329.75V483.5L2982.09 521.75L3043.59 583.25V728L2977.59 794H2684.34V269ZM2948.34 516.5L2991.09 473.75V340.25L2946.84 296H2713.59V516.5H2948.34ZM2964.84 767L3014.34 717.5V593L2964.84 543.5H2713.59V767H2964.84Z" fill="black"/>
</svg>
