<svg width="955" height="1024" viewBox="0 0 955 1024" fill="none" xmlns="http://www.w3.org/2000/svg">
<path d="M477.117 634.103L220.101 549.448C219.281 549.178 218.727 548.412 218.727 547.548V359.859M477.117 634.103L734.898 549.447C735.719 549.177 736.274 548.411 736.274 547.547V359.764M477.117 634.103V314.374M736.274 230.033L831.359 325.868C832.409 326.925 831.974 328.718 830.557 329.178L736.274 359.764M736.274 230.033L477.117 314.374M736.274 230.033L477.117 144.159M736.274 230.033L831.354 134.952C832.407 133.9 831.981 132.107 830.567 131.639L577.18 47.9313C576.471 47.6969 575.69 47.8775 575.156 48.3995L477.117 144.159M477.117 314.374L218.727 230.033M477.117 314.374L379.074 410.897C378.542 411.421 377.762 411.604 377.052 411.373L218.727 359.859M477.117 314.374L575.16 410.898C575.692 411.421 576.471 411.605 577.181 411.375L736.274 359.764M477.117 314.374V144.159M218.727 230.033L123.638 325.87C122.589 326.927 123.023 328.719 124.439 329.18L218.727 359.859M218.727 230.033L477.117 144.159M218.727 230.033L123.644 134.95C122.591 133.898 123.016 132.106 124.429 131.638L377.052 47.9327C377.762 47.6975 378.544 47.8779 379.079 48.4004L477.117 144.159" stroke="black" stroke-width="11.999"/>
<path d="M115.998 906.005V890.106H133.097V900.005L149.295 916.504H223.389L239.888 899.405V848.41L223.389 831.911H142.696L116.598 806.113V748.218L142.696 722.121H228.489L254.586 748.218V764.417H237.488V753.918L220.989 737.719H150.195L133.697 753.918V800.114L150.195 816.312H230.888L256.986 842.41V905.405L230.288 932.103H142.096L115.998 906.005ZM302.123 900.605V722.121H319.521V894.906L341.119 916.504H412.513L434.112 894.906V722.121H451.51V900.605L420.013 932.103H333.62L302.123 900.605ZM502.496 722.121H616.486L642.584 747.918V807.913L627.586 822.612L651.883 846.91V904.205L623.986 932.103H502.496V722.121ZM609.587 819.012L625.486 802.814V753.618L609.287 737.419H519.595V819.012H609.587ZM616.186 916.804L634.785 898.205V852.309L616.186 834.011H519.595V916.804H616.186ZM693.788 722.121H807.779L833.876 747.918V807.913L818.878 822.612L843.176 846.91V904.205L815.278 932.103H693.788V722.121ZM800.879 819.012L816.778 802.814V753.618L800.579 737.419H710.887V819.012H800.879ZM807.479 916.804L826.077 898.205V852.309L807.479 834.011H710.887V916.804H807.479Z" fill="black"/>
</svg>
