<svg width="1024" height="1024" viewBox="0 0 1024 1024" fill="none" xmlns="http://www.w3.org/2000/svg">
<path d="M511.516 906.326L186.41 799.261C185.59 798.991 185.036 798.225 185.036 797.362V559.87M511.516 906.326L837.589 799.26C838.41 798.991 838.965 798.224 838.965 797.36V559.751M511.516 906.326V502.409M838.965 395.86L959.71 517.536C960.76 518.594 960.325 520.387 958.907 520.847L838.965 559.751M838.965 395.86L511.516 502.409M838.965 395.86L511.516 287.373M838.965 395.86L959.705 275.139C960.758 274.086 960.332 272.293 958.918 271.826L637.643 165.708C636.934 165.473 636.153 165.654 635.619 166.176L511.516 287.373M511.516 502.409L185.036 395.86M511.516 502.409L387.409 624.572C386.876 625.096 386.097 625.279 385.387 625.048L185.036 559.87M511.516 502.409L635.624 624.573C636.155 625.096 636.934 625.28 637.643 625.05L838.965 559.751M511.516 502.409V287.373M185.036 395.86L64.2879 517.538C63.2386 518.596 63.6722 520.388 65.0887 520.849L185.036 559.87M185.036 395.86L511.516 287.373M185.036 395.86L64.2932 275.137C63.2407 274.084 63.6654 272.292 65.0782 271.824L385.387 165.709C386.097 165.474 386.878 165.654 387.413 166.177L511.516 287.373" stroke="white" stroke-width="30"/>
</svg>
