<svg width="1024" height="1024" viewBox="0 0 1024 1024" fill="none" xmlns="http://www.w3.org/2000/svg">
<path d="M511.462 947.326L150.081 828.363C149.26 828.093 148.706 827.327 148.706 826.463V562.53M511.462 947.326L873.918 828.362C874.739 828.093 875.294 827.326 875.294 826.462V562.398M511.462 947.326V498.71M875.294 380.371L1009.71 515.767C1010.76 516.825 1010.32 518.619 1008.91 519.078L875.294 562.398M875.294 380.371L511.462 498.71M875.294 380.371L511.462 259.879M875.294 380.371L1009.7 246.037C1010.76 244.984 1010.33 243.191 1008.92 242.724L651.475 124.707C650.766 124.473 649.985 124.654 649.451 125.175L511.462 259.879M511.462 498.71L148.706 380.371M511.462 498.71L373.469 634.487C372.937 635.011 372.157 635.194 371.448 634.964L148.706 562.53M511.462 498.71L649.456 634.488C649.987 635.011 650.766 635.195 651.475 634.965L875.294 562.398M511.462 498.71V259.879M148.706 380.371L14.2892 515.769C13.2395 516.827 13.6731 518.619 15.09 519.08L148.706 562.53M148.706 380.371L511.462 259.879M148.706 380.371L14.2945 246.035C13.2416 244.983 13.6663 243.19 15.0795 242.722L371.448 124.709C372.157 124.474 372.939 124.654 373.473 125.176L511.462 259.879" stroke="white" stroke-width="11.999"/>
</svg>
