<svg width="81" height="28" viewBox="0 0 81 28" fill="none" xmlns="http://www.w3.org/2000/svg">
<path d="M31.42 21.1C30.5267 21.1 29.7333 20.92 29.04 20.56C28.3467 20.2 27.8067 19.6867 27.42 19.02C27.0333 18.3533 26.84 17.56 26.84 16.64C26.84 15.7467 26.9867 14.92 27.28 14.16C27.5733 13.4 27.9867 12.74 28.52 12.18C29.0533 11.6067 29.68 11.1667 30.4 10.86C31.1333 10.5533 31.9267 10.4 32.78 10.4C33.7 10.4 34.48 10.5667 35.12 10.9C35.76 11.22 36.2533 11.6933 36.6 12.32C36.9467 12.9333 37.12 13.68 37.12 14.56C37.12 15.5067 36.9867 16.38 36.72 17.18C36.4667 17.98 36.0867 18.6733 35.58 19.26C35.0733 19.8467 34.4667 20.3 33.76 20.62C33.0667 20.94 32.2867 21.1 31.42 21.1ZM31.72 19.84C32.6 19.84 33.38 19.6333 34.06 19.22C34.7533 18.7933 35.2933 18.2067 35.68 17.46C36.08 16.7133 36.28 15.8667 36.28 14.92C36.28 13.88 35.9733 13.0733 35.36 12.5C34.76 11.9267 33.9133 11.64 32.82 11.64C31.9533 11.64 31.1733 11.8533 30.48 12.28C29.7867 12.7067 29.24 13.2933 28.84 14.04C28.4533 14.7733 28.26 15.62 28.26 16.58C28.26 17.6067 28.56 18.4067 29.16 18.98C29.7733 19.5533 30.6267 19.84 31.72 19.84ZM35.18 21L35.78 17.98L36.38 15.86L36.58 13.66L38.08 6.16H39.5L36.54 21H35.18ZM38.4947 21L40.5747 10.5H41.9347L41.3347 13.6L41.1747 13.06C41.6414 12.14 42.2547 11.4667 43.0147 11.04C43.788 10.6133 44.748 10.4 45.8947 10.4L45.6347 11.78C45.568 11.78 45.5014 11.78 45.4347 11.78C45.3814 11.7667 45.3147 11.76 45.2347 11.76C44.1147 11.76 43.188 12.0867 42.4547 12.74C41.7347 13.38 41.2414 14.3533 40.9747 15.66L39.9147 21H38.4947ZM44.3658 21L46.4458 10.5H47.8658L45.7858 21H44.3658ZM47.7658 8.18C47.4858 8.18 47.2524 8.08667 47.0658 7.9C46.8924 7.71333 46.8058 7.49333 46.8058 7.24C46.8058 6.94667 46.9058 6.69333 47.1058 6.48C47.3191 6.26667 47.5858 6.16 47.9058 6.16C48.1858 6.16 48.4191 6.24667 48.6058 6.42C48.7924 6.59333 48.8858 6.81333 48.8858 7.08C48.8858 7.4 48.7791 7.66667 48.5658 7.88C48.3524 8.08 48.0858 8.18 47.7658 8.18ZM50.4569 21L47.8569 10.5H49.2769L51.6369 20.24H50.9569L57.1969 10.5H58.6769L51.8969 21H50.4569ZM61.0838 21.1C60.0838 21.1 59.2104 20.92 58.4638 20.56C57.7304 20.1867 57.1638 19.6667 56.7638 19C56.3771 18.3333 56.1838 17.54 56.1838 16.62C56.1838 15.42 56.4371 14.3533 56.9438 13.42C57.4504 12.4867 58.1438 11.7533 59.0238 11.22C59.9038 10.6733 60.8971 10.4 62.0038 10.4C62.9371 10.4 63.7438 10.58 64.4238 10.94C65.1038 11.2867 65.6304 11.7933 66.0038 12.46C66.3904 13.1267 66.5838 13.9267 66.5838 14.86C66.5838 15.0733 66.5704 15.2933 66.5438 15.52C66.5171 15.7333 66.4838 15.94 66.4438 16.14H57.2238L57.4038 15.08H65.7838L65.2038 15.48C65.3371 14.64 65.2771 13.9333 65.0238 13.36C64.7704 12.7867 64.3771 12.3533 63.8438 12.06C63.3238 11.7533 62.6971 11.6 61.9638 11.6C61.1104 11.6 60.3504 11.8133 59.6838 12.24C59.0171 12.6533 58.4971 13.2333 58.1238 13.98C57.7504 14.7133 57.5638 15.5733 57.5638 16.56C57.5638 17.6133 57.8638 18.4267 58.4638 19C59.0771 19.56 59.9904 19.84 61.2038 19.84C61.9104 19.84 62.5638 19.7267 63.1638 19.5C63.7638 19.26 64.2571 18.9333 64.6438 18.52L65.2838 19.54C64.7904 20.0333 64.1704 20.42 63.4238 20.7C62.6904 20.9667 61.9104 21.1 61.0838 21.1ZM73.5741 10.4C74.5207 10.4 75.2941 10.5867 75.8941 10.96C76.5074 11.32 76.9274 11.8467 77.1541 12.54C77.3941 13.2333 77.4141 14.06 77.2141 15.02L76.0141 21H74.5941L75.7941 15C76.0074 13.96 75.8941 13.1467 75.4541 12.56C75.0274 11.9733 74.2674 11.68 73.1741 11.68C72.0541 11.68 71.1207 11.9867 70.3741 12.6C69.6407 13.2133 69.1474 14.1333 68.8941 15.36L67.7741 21H66.3541L68.4341 10.5H69.7941L69.1941 13.52L68.8941 13C69.4007 12.0933 70.0541 11.4333 70.8541 11.02C71.6674 10.6067 72.5741 10.4 73.5741 10.4Z" fill="black"/>
<path d="M16.1488 11.4716V5.61153C16.1488 4.72151 15.4273 4 14.5373 4C13.6473 4 12.9258 4.72151 12.9258 5.61153V10.4461" stroke="black" stroke-width="1.5" stroke-linecap="round"/>
<path d="M18.346 14.8414L20.5217 7.58899C20.7755 6.74302 20.2886 5.85285 19.4394 5.61021C18.5943 5.36877 17.7142 5.86127 17.4779 6.7078L16.1484 11.4719" stroke="black" stroke-width="1.5" stroke-linecap="round"/>
<path d="M9.61912 11.2494L10.6747 13.5909C11.0394 14.3999 10.6814 15.3516 9.87381 15.7196C9.0616 16.0897 8.10324 15.7292 7.7364 14.9155L6.68086 12.5741C6.31614 11.765 6.67416 10.8133 7.4817 10.4453C8.29392 10.0752 9.25228 10.4357 9.61912 11.2494Z" stroke="black" stroke-width="1.5" stroke-linecap="round"/>
<path d="M13.7187 14.2612C13.9234 13.6937 13.8993 13.0689 13.6513 12.5189L12.5782 10.1385C12.2176 9.33865 11.2757 8.98427 10.4773 9.34809C9.66422 9.71865 9.31838 10.6881 9.71335 11.4896L9.84899 11.7648" stroke="black" stroke-width="1.5" stroke-linecap="round"/>
<path d="M15.8566 19.6767L16.3487 18.6927C16.3976 18.5947 16.3461 18.4763 16.241 18.4454L12.6903 17.4011C11.9785 17.1918 11.518 16.5038 11.5956 15.766C11.6837 14.9292 12.4284 14.3188 13.2662 14.3968L18.0542 14.8422C18.0542 14.8422 21.8632 15.4282 20.5447 19.2372C19.2262 23.0463 18.7867 24.3648 15.8566 24.3648C13.9521 24.3648 11.1685 24.3648 11.1685 24.3648H10.8755C8.52912 24.3648 6.62697 22.4627 6.62697 20.1163L6.48047 11.9121" stroke="black" stroke-width="1.5" stroke-linecap="round"/>
</svg>
